<svg xmlns="http://www.w3.org/2000/svg" style="display:none">
  <!-- Asite TQI icon sprite. 20/24px grid, 1.5px stroke, currentColor. -->
  <symbol id="ico-today" viewBox="0 0 20 20"><path d="M3.5 9.5 L10 3.5 L16.5 9.5 V16 H12 V12 H8 V16 H3.5 Z"/></symbol>
  <symbol id="ico-rfis" viewBox="0 0 20 20"><circle cx="10" cy="10" r="6.5"/><circle cx="10" cy="10" r="1.4" fill="currentColor" stroke="none"/><path d="M10 1.5 V3.5 M10 16.5 V18.5 M1.5 10 H3.5 M16.5 10 H18.5"/></symbol>
  <symbol id="ico-files" viewBox="0 0 20 20"><path d="M4 3.5 H11 L16 8.5 V16.5 H4 Z"/><path d="M11 3.5 V8.5 H16"/></symbol>
  <symbol id="ico-docs" viewBox="0 0 20 20"><rect x="4" y="3" width="12" height="14" rx="1.5"/><path d="M7 7.5 H13 M7 10.5 H13 M7 13.5 H10.5"/></symbol>
  <symbol id="ico-convert" viewBox="0 0 20 20"><path d="M4 7 H14 L11.5 4.5 M16 13 H6 L8.5 15.5"/></symbol>
  <symbol id="ico-models" viewBox="0 0 20 20"><path d="M10 2.5 L16.5 6 V14 L10 17.5 L3.5 14 V6 Z M3.5 6 L10 9.5 L16.5 6 M10 9.5 V17.5"/></symbol>
  <symbol id="ico-field" viewBox="0 0 20 20"><path d="M4.5 12 Q4.5 6 10 6 Q15.5 6 15.5 12 Z"/><path d="M3 12 H17 M8.5 6 Q8.5 3.5 10 3.5 Q11.5 3.5 11.5 6"/></symbol>
  <symbol id="ico-search" viewBox="0 0 20 20"><circle cx="9" cy="9" r="5.5"/><path d="M13.2 13.2 L17 17"/></symbol>
  <symbol id="ico-filter" viewBox="0 0 20 20"><path d="M3.5 5 H16.5 L11.5 10.5 V15.5 L8.5 17 V10.5 Z"/></symbol>
  <symbol id="ico-upload" viewBox="0 0 20 20"><path d="M10 13 V3.5 M6.5 7 L10 3.5 L13.5 7"/><path d="M4 13.5 V16.5 H16 V13.5"/></symbol>
  <symbol id="ico-comment" viewBox="0 0 20 20"><path d="M4 4.5 H16 V13 H9.5 L6 16 V13 H4 Z"/></symbol>
  <symbol id="ico-hold-point" viewBox="0 0 20 20"><rect x="5.5" y="5.5" width="9" height="9" transform="rotate(45 10 10)"/></symbol>
  <symbol id="ico-intelligence" viewBox="0 0 24 24"><path d="M12 3 L13.8 9.2 L20 11 L13.8 12.8 L12 20 L10.2 12.8 L4 11 L10.2 9.2 Z" fill="none" stroke="currentColor" stroke-width="1.4" stroke-linejoin="round"/></symbol>
  <symbol id="ico-run" viewBox="0 0 20 20"><circle cx="10" cy="10" r="6.5"/><path d="M8 7 L13.5 10 L8 13 Z"/></symbol>
  <symbol id="ico-tool-call" viewBox="0 0 20 20"><path d="M5 4 H15 V16 H5 Z"/><path d="M8 8 H12 M8 11 H12 M8 13.5 H10.5"/></symbol>
  <symbol id="ico-reasoning" viewBox="0 0 20 20"><circle cx="6" cy="6.5" r="2.1"/><circle cx="14.5" cy="9" r="2.1"/><circle cx="8" cy="14.5" r="2.1"/><path d="M7.7 7.7 L12.6 8.4 M12.8 10.6 L9.2 12.7"/></symbol>
  <symbol id="ico-citation" viewBox="0 0 20 20"><path d="M7 4 H13 L16 7 V16 H4 V7 Z"/><path d="M7 4 V7 H4 M7 11 H13 M7 13.5 H11"/></symbol>
  <symbol id="ico-confidence" viewBox="0 0 20 20"><path d="M3 14 a7 7 0 0 1 14 0"/><path d="M10 14 L13.6 8.4"/><circle cx="10" cy="14" r="1.1" fill="currentColor" stroke="none"/></symbol>
  <symbol id="ico-stream" viewBox="0 0 20 20"><path d="M3 10 h2.5 l1.5 -4 2.5 8 1.5 -4 H17"/></symbol>
  <symbol id="ico-prompt" viewBox="0 0 20 20"><path d="M4 5.5 H16 M4 10 H16 M4 14.5 H11"/><circle cx="14.5" cy="14.5" r="1.6"/></symbol>
  <symbol id="ico-orchestrate" viewBox="0 0 20 20"><circle cx="10" cy="10" r="3"/><path d="M10 2 V4.5 M10 15.5 V18 M2 10 H4.5 M15.5 10 H18 M4.4 4.4 L6.2 6.2 M13.8 13.8 L15.6 15.6 M15.6 4.4 L13.8 6.2 M6.2 13.8 L4.4 15.6"/></symbol>
  <symbol id="ico-retry" viewBox="0 0 20 20"><path d="M10 3 a7 7 0 1 1 -6 3.5"/><path d="M4 3.5 V6.5 H7"/></symbol>
  <symbol id="ico-guardrail" viewBox="0 0 20 20"><path d="M10 3 L16.5 6 V11 Q16.5 15.5 10 17.5 Q3.5 15.5 3.5 11 V6 Z"/><path d="M7.5 10 L9.5 12 L13 8"/></symbol>
  <symbol id="ico-ask" viewBox="0 0 20 20"><path d="M4 15 V5 a1 1 0 0 1 1 -1 H15 a1 1 0 0 1 1 1 V12 a1 1 0 0 1 -1 1 H8 Z"/><circle cx="8" cy="8.5" r="0.8" fill="currentColor" stroke="none"/><circle cx="11" cy="8.5" r="0.8" fill="currentColor" stroke="none"/></symbol>
</svg>
