<svg xmlns="http://www.w3.org/2000/svg" viewBox="0 0 377 396" role="img" aria-label="Asite mark" fill="#050505">
  <path fill-rule="evenodd" clip-rule="evenodd" d="M62.2865 5.49758C48.8039 8.10323 56.8012 26.2896 96.8901 24.907L230.691 23.7371C236.176 23.7371 246.532 24.588 249.3 27.4595L289.645 50.804C305.024 61.4393 295.182 59.8972 284.519 60.2162L126.367 65.5339C108.835 66.1188 106.169 68.2459 92.3788 58.3019C41.4218 21.4505 7.3821 5.49758 0 62.1838C0.615175 118.905 1.24744 175.769 1.89679 232.774C2.81955 245.377 24.4532 247.451 24.8121 231.498C24.8121 174.174 24.8121 126.74 24.8121 69.4158C24.8121 58.036 29.9385 56.6002 40.1915 65.3744L68.0794 92.4412C77.6146 100.949 77.9735 111.106 77.8709 125.411V295.895C77.2045 307.806 80.6905 323.653 66.4389 308.817L36.7055 276.273C19.0192 263.404 17.7888 283.132 21.3261 288.929C40.5132 319.361 61.7558 348.344 84.8942 375.66C102.734 396.452 99.2996 396.93 123.804 395.016L343.473 372.682C360.39 370.555 375.821 354.017 377 322.004V155.987C374.744 121.316 341.115 122.858 343.012 155.987L344.242 307.487C343.575 328.439 341.73 328.758 316.2 334.501C296.566 338.808 200.496 351.677 146.412 348.539C126.777 347.423 120.421 342.477 120.421 325.993V134.557C120.421 109.564 136.261 101.322 159.074 99.9923L352.444 91.6968C383.203 83.7735 358.186 49.1555 343.473 42.4021C327.683 35.436 273.189 9.96441 249.095 2.04111C244.671 0.289835 239.91 -0.348017 235.202 0.179926L62.2865 5.49758Z"/>
  <path fill-rule="evenodd" clip-rule="evenodd" d="M152.769 227.51L152.41 197.784L251.607 191.722L205.212 150.776L247.864 149.234L300.975 199.432L236.689 267.924L202.854 264.627L249.351 217.991L152.769 227.51Z"/>
</svg>
