<svg xmlns="http://www.w3.org/2000/svg" width="400" height="240" viewBox="0 0 520 300" fill="none" stroke-linecap="round">
            <line x1="20" y1="270" x2="500" y2="270" stroke="#33363B" stroke-width="1.5"/>
            <rect x="120" y="130" width="120" height="140" stroke="#3A4046" stroke-width="1.5"/>
            <g stroke="#33363B" stroke-width="1.2"><line x1="120" y1="170" x2="240" y2="170"/><line x1="120" y1="210" x2="240" y2="210"/><line x1="120" y1="250" x2="240" y2="250"/></g>
            <rect x="120" y="96" width="120" height="34" stroke="#33363B" stroke-width="1.2" stroke-dasharray="4 6"/>
            <rect x="300" y="170" width="96" height="100" stroke="#3A4046" stroke-width="1.5"/>
            <!-- the constellation reading -->
            <g transform="translate(330,70)"><g fill="#FF5C26"><path d="M0 -16 L2.8 -6 L13 0 L2.8 6 L0 16 L-2.8 6 L-13 0 L-2.8 -6 Z"/></g><circle r="26" stroke="#FF5C26" stroke-opacity="0.4" stroke-width="1.4" fill="none"/></g>
            <g stroke="#62666D" stroke-width="1.2" stroke-dasharray="2 6"><line x1="330" y1="96" x2="180" y2="150"/><line x1="330" y1="96" x2="348" y2="190"/><line x1="330" y1="96" x2="210" y2="240"/></g>
            <circle cx="180" cy="150" r="3.4" fill="#FF5C26"/><circle cx="348" cy="190" r="3.4" fill="#FF5C26"/><circle cx="210" cy="240" r="3.4" fill="#FF5C26"/>
            <text x="364" y="60" font-family="JetBrains Mono, monospace" font-size="10" fill="#8A8F98">READING</text>
          </svg>
