<svg xmlns="http://www.w3.org/2000/svg" width="380" height="220" viewBox="0 0 560 330" fill="none" stroke-linecap="round">
            <line x1="20" y1="300" x2="540" y2="300" stroke="#33363B" stroke-width="1.5"/>
            <g stroke="#FF5C26" stroke-width="5"><line x1="70" y1="291" x2="92" y2="309"/><line x1="92" y1="291" x2="70" y2="309"/></g>
            <rect x="200" y="90" width="170" height="210" stroke="#3A4046" stroke-width="1.5"/>
            <g stroke="#33363B" stroke-width="1.2"><line x1="200" y1="260" x2="370" y2="260"/><line x1="200" y1="220" x2="370" y2="220"/><line x1="200" y1="180" x2="370" y2="180"/><line x1="200" y1="140" x2="370" y2="140"/></g>
            <rect x="200" y="56" width="170" height="34" stroke="#33363B" stroke-width="1.2" stroke-dasharray="4 6"/>
            <g stroke="#3A4046" stroke-width="1.4">
              <line x1="120" y1="300" x2="120" y2="50"/><line x1="134" y1="300" x2="134" y2="50"/>
              <line x1="120" y1="100" x2="134" y2="128"/><line x1="134" y1="100" x2="120" y2="128"/>
              <line x1="120" y1="170" x2="134" y2="198"/><line x1="134" y1="170" x2="120" y2="198"/>
              <line x1="120" y1="240" x2="134" y2="268"/><line x1="66" y1="50" x2="420" y2="50"/>
              <line x1="127" y1="26" x2="127" y2="50"/><line x1="127" y1="26" x2="300" y2="50"/><line x1="127" y1="26" x2="66" y2="50"/>
            </g>
            <line x1="330" y1="50" x2="330" y2="112" stroke="#62666D" stroke-width="1.2"/>
            <circle cx="330" cy="118" r="4" fill="#FF5C26"/>
            <g stroke="#62666D" stroke-width="1.4"><line x1="470" y1="300" x2="460" y2="254"/><line x1="470" y1="300" x2="480" y2="254"/><line x1="470" y1="294" x2="470" y2="248"/></g>
            <rect x="461" y="234" width="18" height="13" rx="3" stroke="#8A8F98" stroke-width="1.4"/>
            <line x1="459" y1="238" x2="376" y2="156" stroke="#FF5C26" stroke-width="1.2" stroke-dasharray="2 6"/>
            <circle cx="372" cy="152" r="3.4" fill="#FF5C26"/>
          </svg>
